/* XPM */
static char * monopoly_xpm[] = {
"44 32 15 1",
" 	c None",
".	c #EEEEEE",
"+	c #000000",
"@	c #FFFFFF",
"#	c #1B1B1B",
"$	c #F8F8F8",
"%	c #A1A1A1",
"&	c #474747",
"*	c #313131",
"=	c #CDCDCD",
"-	c #B8B8B8",
";	c #737373",
">	c #5D5D5D",
",	c #DFDFDF",
"'	c #8A8A8A",
"                                            ",
"                 ;'                         ",
"               ++.@@-#                      ",
"               #>@@@'+++                    ",
"            -  +-@@,+++%'                   ",
"        %$,=% ;%%--;++&,                    ",
"        $-,=' #-$..'>+-%                    ",
"       =@=,%;;''%%%';;'                     ",
"       ,$.$=%=@$-',=-%->                    ",
"     '-=.-  =.@@...@,=%.                    ",
"     #-.,   $.@@.@@@$-'$     =$             ",
"     &+*'  %@=.$@@@@@.,>  =;==->            ",
"     -+++# >-..=.@@@@$-%..%%=$@$'           ",
"     -+++#;.@$$@==-@.>=@@@$-;=,@%;          ",
"     -;+++#&%%==--.$%=..@@@=+>%>#-;         ",
"     >=+++++>.@@@@@--%&%@@@@%++++*-         ",
"      %-+++++*---==,-;;,@@@@,;++++-         ",
"       %-;+++;';'==.-.;;@@@,='->++%&        ",
"         ---%;='.-$$%%&;$-===.-,++-         ",
"             &'+,@,@%$,$@==,@@.,>>-         ",
"         ;-=,.,=-=,,,%.==.,-@@@=;%  +       ",
"       >=@@@@@@@@@,=='>--'-.@@=>* -&+*      ",
"       .@@@@@@@@@@@@@@..=-=,@.&+;=@$,$=#    ",
"      ,@@@@@@@@@@@@@$@@@@@,..-=.@@@@@@-%-   ",
"  ># %@@@@@@@@@@@@@@$.@@@@@@@@@@@@@@@@%+&-  ",
"  =>+#$@@@@@@.=,=$@@@=.@@@@@@@@@@@@@@,; #*- ",
"   -%&$@@@@@-    '=.@@%=@@@@@@@@@@@$=       ",
"     %$.@@.'            ;-.@@@@@@.-;        ",
"      >+&=                +&;'''&           ",
"       +                                    ",
"                                            ",
"                                            "};
