/* XPM */
static char * ramen_xpm[] = {
"32 32 288 2",
"  	c None",
". 	c #6D4D4F",
"+ 	c #764F51",
"@ 	c #442E2F",
"# 	c #2A2A2A",
"$ 	c #6D4F4F",
"% 	c #986566",
"& 	c #805657",
"* 	c #754D4E",
"= 	c #432D2D",
"- 	c #6A4E4D",
"; 	c #735352",
"> 	c #755353",
", 	c #986465",
"' 	c #895C5D",
") 	c #895C5C",
"! 	c #684747",
"~ 	c #000100",
"{ 	c #694949",
"] 	c #986567",
"^ 	c #815556",
"/ 	c #754D4D",
"( 	c #764D4D",
"_ 	c #986568",
": 	c #8A5B5D",
"< 	c #5F4748",
"[ 	c #553A3A",
"} 	c #000000",
"| 	c #452828",
"1 	c #774546",
"2 	c #8D5B5C",
"3 	c #724E4D",
"4 	c #714E4D",
"5 	c #895B5C",
"6 	c #996566",
"7 	c #010101",
"8 	c #835657",
"9 	c #8D5B5B",
"0 	c #643C3D",
"a 	c #CBA963",
"b 	c #8E704B",
"c 	c #A2864D",
"d 	c #5E3636",
"e 	c #8B5D5D",
"f 	c #5E4546",
"g 	c #5D3D3D",
"h 	c #472828",
"i 	c #BA8848",
"j 	c #D4AA61",
"k 	c #F4C572",
"l 	c #B8884B",
"m 	c #1D1D1D",
"n 	c #5E4041",
"o 	c #4A2B2C",
"p 	c #C6A057",
"q 	c #8F6C3E",
"r 	c #ECB568",
"s 	c #B8884A",
"t 	c #CDAC5F",
"u 	c #A0874D",
"v 	c #F0BB6C",
"w 	c #DFBA70",
"x 	c #7C6B42",
"y 	c #8F7A4E",
"z 	c #AD854C",
"A 	c #CE9B5B",
"B 	c #FDD47D",
"C 	c #9E8949",
"D 	c #292929",
"E 	c #292829",
"F 	c #3F362D",
"G 	c #231D1A",
"H 	c #B9884C",
"I 	c #BA8650",
"J 	c #9D834E",
"K 	c #605043",
"L 	c #605042",
"M 	c #3F352D",
"N 	c #483E34",
"O 	c #52463B",
"P 	c #58483D",
"Q 	c #332A24",
"R 	c #C49E5B",
"S 	c #9D824E",
"T 	c #9E894B",
"U 	c #4D3C33",
"V 	c #4D3C32",
"W 	c #59483D",
"X 	c #53463B",
"Y 	c #483D33",
"Z 	c #3D342C",
"` 	c #54463B",
" .	c #554439",
"..	c #392D26",
"+.	c #B89A5B",
"@.	c #AB824E",
"#.	c #8E683B",
"$.	c #946C3D",
"%.	c #3C2F27",
"&.	c #3C2F26",
"*.	c #3C2E26",
"=.	c #55443A",
"-.	c #3E342C",
";.	c #4A3F36",
">.	c #58483C",
",.	c #524136",
"'.	c #2C221E",
").	c #2D231F",
"!.	c #A0874E",
"~.	c #9C834A",
"{.	c #8D683B",
"].	c #946D3E",
"^.	c #CCA963",
"/.	c #8F5526",
"(.	c #8E5428",
"_.	c #AA7C46",
":.	c #CBA961",
"<.	c #2C231E",
"[.	c #2D231E",
"}.	c #4D3D33",
"|.	c #4A4037",
"1.	c #40372F",
"2.	c #43342B",
"3.	c #3D2F27",
"4.	c #5A3923",
"5.	c #6A3F1F",
"6.	c #D39B57",
"7.	c #D19A54",
"8.	c #9A7E48",
"9.	c #967B44",
"0.	c #F0BB6B",
"a.	c #9F894B",
"b.	c #D19B55",
"c.	c #B08D53",
"d.	c #9A834F",
"e.	c #B99A5C",
"f.	c #B89E6B",
"g.	c #999078",
"h.	c #D5AE65",
"i.	c #E6B567",
"j.	c #EFC06F",
"k.	c #DFBB6E",
"l.	c #625230",
"m.	c #806C43",
"n.	c #59493E",
"o.	c #3E352D",
"p.	c #43342C",
"q.	c #A48952",
"r.	c #CCAA64",
"s.	c #DBB066",
"t.	c #9D5E2C",
"u.	c #6D4423",
"v.	c #B49157",
"w.	c #B29055",
"x.	c #906C3E",
"y.	c #8D6A38",
"z.	c #9E894A",
"A.	c #A18850",
"B.	c #C29558",
"C.	c #DEB970",
"D.	c #B6A885",
"E.	c #D9CCAE",
"F.	c #F2C79C",
"G.	c #A9997F",
"H.	c #9C5E2E",
"I.	c #836237",
"J.	c #B7A887",
"K.	c #B8A985",
"L.	c #DFBA6F",
"M.	c #BB864A",
"N.	c #8F5427",
"O.	c #A58951",
"P.	c #43352D",
"Q.	c #493D33",
"R.	c #3E352C",
"S.	c #59493D",
"T.	c #64442E",
"U.	c #8D552A",
"V.	c #704321",
"W.	c #A57A45",
"X.	c #E4B467",
"Y.	c #A48850",
"Z.	c #B89151",
"`.	c #A38750",
" +	c #C49D5C",
".+	c #AC9257",
"++	c #AF9656",
"@+	c #D4AD67",
"#+	c #BC9B5B",
"$+	c #937156",
"%+	c #DACCAD",
"&+	c #E77E3A",
"*+	c #CF8857",
"=+	c #A1967D",
"-+	c #F2C7A0",
";+	c #EC9F6C",
">+	c #EFCFA9",
",+	c #918872",
"'+	c #EDC070",
")+	c #EDC071",
"!+	c #CCAA67",
"~+	c #89734C",
"{+	c #5A493D",
"]+	c #2F2B2A",
"^+	c #42332B",
"/+	c #56473C",
"(+	c #53463A",
"_+	c #6B401F",
":+	c #895228",
"<+	c #D29E58",
"[+	c #CCAA63",
"}+	c #DCB166",
"|+	c #A3874E",
"1+	c #71522F",
"2+	c #AC9055",
"3+	c #AD9354",
"4+	c #AE8C50",
"5+	c #8C6F40",
"6+	c #9D947D",
"7+	c #F2C49B",
"8+	c #E27C39",
"9+	c #DB7835",
"0+	c #9B7D65",
"a+	c #DFB08A",
"b+	c #DA7735",
"c+	c #D7B792",
"d+	c #827864",
"e+	c #825F36",
"f+	c #805E35",
"g+	c #54463A",
"h+	c #42342B",
"i+	c #2F2B29",
"j+	c #392E28",
"k+	c #615043",
"l+	c #55473B",
"m+	c #40362E",
"n+	c #8C552A",
"o+	c #8C552B",
"p+	c #CAA966",
"q+	c #CBA967",
"r+	c #A67B46",
"s+	c #A87C48",
"t+	c #7D7663",
"u+	c #BE8A66",
"v+	c #A75C2A",
"w+	c #663717",
"x+	c #AF8B6C",
"y+	c #AD5F2A",
"z+	c #382D28",
"A+	c #514036",
"B+	c #544639",
"C+	c #282828",
"D+	c #29211C",
"E+	c #47372E",
"F+	c #3D2E27",
"G+	c #211B1A",
"H+	c #483831",
"I+	c #473832",
"J+	c #211B1B",
"K+	c #1E1B1D",
"L+	c #443632",
"M+	c #4A3A32",
"N+	c #1F1A1D",
"O+	c #231F22",
"P+	c #372F2F",
"Q+	c #423531",
"R+	c #423532",
"S+	c #372F30",
"T+	c #201B1E",
"U+	c #302A2E",
"V+	c #443630",
"W+	c #4A3A31",
"X+	c #392F2F",
"Y+	c #2F2A2E",
"Z+	c #1F1B1E",
"`+	c #242022",
" @	c #372E30",
".@	c #3B3130",
"+@	c #262324",
"@@	c #252224",
"#@	c #1A1719",
"$@	c #282427",
"%@	c #1A1819",
"&@	c #0C0A0B",
"*@	c #1B1619",
"=@	c #1B1A1A",
"-@	c #1B171A",
";@	c #1D1B1C",
"                                                  . + @         ",
"                                        # # $ % % & * =         ",
"                                  - ; > , , ' ; ; ) , !         ",
"                        ~ ~ { ] ] ^ / ( _ ] : / / <             ",
"                  [ } | 1 2 ' 3 4 5 % 6 7 }                     ",
"              8 9 0 a b c d e + + f                             ",
"              g h i j k l m                                     ",
"              n o p q r s                                       ",
"                  t u v w x                                     ",
"                  y z A B C D E E E E D                         ",
"                F G H I J C K L L L L K M F F F                 ",
"        7 N O O P Q R I S T U V V V V V W W W W X O Y 7         ",
"    Z ` K  .V V V ..+.@.#.$.%.&.&.&.&.*.V V V V V V =.K ` -.    ",
"  ;.>.,.V U U U '.).!.~.{.].^.a /.(._.:.<.<.<.[.U U }.V ,.>.|.  ",
"1.P V 2.3.4.5.5.6.7.8.9.0.a.b.c.d.e.f.g.h.i.j.k.l.d.m.3.2.V n.o.",
"1.Y p.q.r.s.t.u.v.w.x.y.0.z.A.B.C.D.E.F.G.H.I.J.K.L.M.N.O.P.Q.R.",
"<.S.T.U.H.V.W.X.Y.Z.`. +.+++@+#+$+%+&+&+*+=+-+;+>+,+'+)+!+~+{+<.",
"]+^+/+(+_+_+:+<+[+}+|+1+2+3+4+5+6+7+8+9+0+a+8+b+c+d+e+f+g+/+h+i+",
"  j+V U k+K l+m+m+1.n+o+p+q+r+s+t+u+v+w+x+y+m+m+m+l+K k+V V z+  ",
"  # U V V V A+>.>.P B+B+B+B+B+B+B+B+B+B+B+B+W >.>.A+V V V }.C+  ",
"    D+E+V V V V V V V V V V V V V V V V V V V V V V V V E+D+    ",
"      %.V V V V V V V V V V V V V V V V V V V V V V V V F+      ",
"        p.V V V V V V V V V V V V V V V V V V V V V V p.        ",
"        G+H+V V V V V V V V V V V V V V V V V V V V I+J+        ",
"          K+L+M+V V V V V V V V V V V V V V V V M+L+N+          ",
"            O+P+Q+V V V V V V V V V V V V V V R+S+O+            ",
"              T+U+U+P+V+V+W+V V V V M+V+V+X+U+Y+Z+              ",
"                `+Y+Y+Y+Y+ @.@.@.@.@S+Y+Y+Y+Y+O+                ",
"                  +@Y+Y+Y+Y+Y+Y+Y+Y+Y+Y+Y+Y+@@                  ",
"                    #@$@Y+Y+Y+Y+Y+Y+Y+Y+$@%@                    ",
"                        &@*@*@*@*@*@*@&@                        ",
"                        =@-@-@-@-@-@-@;@                        "};
