/* XPM */
static char * shuriken_xpm[] = {
"32 32 47 1",
" 	c None",
".	c #FFFFFF",
"+	c #EEEEEE",
"@	c #000000",
"#	c #EDEDED",
"$	c #FAFAFA",
"%	c #F7F7F7",
"&	c #F3F3F3",
"*	c #FBFBFB",
"=	c #F4F4F4",
"-	c #E6E6E6",
";	c #919191",
">	c #BABABA",
",	c #C6C6C6",
"'	c #D8D8D8",
")	c #EAEAEA",
"!	c #5B5B5B",
"~	c #858585",
"{	c #141414",
"]	c #797979",
"^	c #4E4E4E",
"/	c #AAAAAA",
"(	c #A2A2A2",
"_	c #CFCFCF",
":	c #737373",
"<	c #696969",
"[	c #515151",
"}	c #DFDFDF",
"|	c #999999",
"1	c #282828",
"2	c #2F2F2F",
"3	c #323232",
"4	c #6B6B6B",
"5	c #B3B3B3",
"6	c #414141",
"7	c #BDBDBD",
"8	c #212121",
"9	c #8B8B8B",
"0	c #3A3A3A",
"a	c #0C0C0C",
"b	c #7F7F7F",
"c	c #484848",
"d	c #1B1B1B",
"e	c #242424",
"f	c #393939",
"g	c #616161",
"h	c #CACACA",
"                                ",
"                a               ",
"               a{               ",
"              {@8               ",
"              @@                ",
"              @@                ",
"             {@@a               ",
"             {@@@               ",
"             8@@@{              ",
"             @@@@@{             ",
"            d@@@@@@             ",
"            a@@@@@@@            ",
"           a@@@@@@@@a{          ",
"         {@@@@@d{@@@@@@@{d      ",
"        @@@@@@    @@@@@@@@@@d   ",
" a{{ 8{@@@@@@d    8@@@@@@@@@@@  ",
"  @@@@@@@@@@@8    d@@@@@@d8 {{a ",
"   d@@@@@@@@@@    @@@@@@        ",
"      {{@@@@@@@{d@@@@@{         ",
"          {a@@@@@@@@a           ",
"            @@@@@@@a            ",
"             @@@@@@d            ",
"             {@@@@@             ",
"              {@@@8             ",
"               @@@{             ",
"               a@@{             ",
"                @@              ",
"                @@              ",
"               8@{              ",
"               {a               ",
"               @                ",
"                                "};
