/* XPM */
static char * smile_xpm[] = {
"64 64 637 2",
"  	c None",
". 	c #EF8F46",
"+ 	c #F09041",
"@ 	c #F18F2F",
"# 	c #F29233",
"$ 	c #F3932F",
"% 	c #F4932C",
"& 	c #F18E2F",
"* 	c #F09042",
"= 	c #EF8F47",
"- 	c #EF8E45",
"; 	c #F18F35",
"> 	c #F4942A",
", 	c #F69A27",
"' 	c #F89E26",
") 	c #F8A025",
"! 	c #F9A325",
"~ 	c #F9A425",
"{ 	c #F9A525",
"] 	c #F9A625",
"^ 	c #F8A125",
"/ 	c #F3942A",
"( 	c #F08F36",
"_ 	c #EE8D46",
": 	c #EE8C44",
"< 	c #F19037",
"[ 	c #F59629",
"} 	c #F79D26",
"| 	c #F9A225",
"1 	c #FAA625",
"2 	c #FAA926",
"3 	c #FAAC26",
"4 	c #FBAE27",
"5 	c #FBB027",
"6 	c #FCB227",
"7 	c #FCB327",
"8 	c #FBB227",
"9 	c #FBAF27",
"0 	c #FBAC26",
"a 	c #FAAA26",
"b 	c #F9A626",
"c 	c #F4962A",
"d 	c #F18F38",
"e 	c #ED8B45",
"f 	c #EE8E4A",
"g 	c #F29134",
"h 	c #F69927",
"i 	c #F9A125",
"j 	c #FAAB26",
"k 	c #FCB628",
"l 	c #FDB928",
"m 	c #FDBD2B",
"n 	c #FDC034",
"o 	c #FDC43F",
"p 	c #FEC648",
"q 	c #FEC850",
"r 	c #FEC953",
"s 	c #FEC74D",
"t 	c #FEC546",
"u 	c #FDC13B",
"v 	c #FDBD2E",
"w 	c #FDBA28",
"x 	c #FCB728",
"y 	c #FAA726",
"z 	c #F19035",
"A 	c #ED8D4B",
"B 	c #FAA826",
"C 	c #FCB828",
"D 	c #FED374",
"E 	c #FEDC92",
"F 	c #FFE4A7",
"G 	c #FFE8B5",
"H 	c #FFEBBD",
"I 	c #FFECC0",
"J 	c #FFEDC3",
"K 	c #FFEDC5",
"L 	c #FFECC2",
"M 	c #FFEABA",
"N 	c #FFE5AC",
"O 	c #FEDD95",
"P 	c #FED272",
"Q 	c #FEC749",
"R 	c #FDBD2C",
"S 	c #FCB427",
"T 	c #F9A326",
"U 	c #F69928",
"V 	c #F08F38",
"W 	c #EF8D3F",
"X 	c #FDBB29",
"Y 	c #FDC64A",
"Z 	c #FED67F",
"` 	c #FEE4A6",
" .	c #FFEBBB",
"..	c #FFEDC4",
"+.	c #FFE2A1",
"@.	c #FED475",
"#.	c #FEC440",
"$.	c #FCB528",
"%.	c #F4952A",
"&.	c #EE8C41",
"*.	c #F18F34",
"=.	c #F79B27",
"-.	c #FDBA29",
";.	c #FEC84E",
">.	c #FEDB8C",
",.	c #FEE8B2",
"'.	c #FEEBBE",
").	c #FFEBBE",
"!.	c #FFEBBC",
"~.	c #FFE7AD",
"{.	c #FED982",
"].	c #FEC645",
"^.	c #FBAD26",
"/.	c #F08E35",
"(.	c #F3922D",
"_.	c #F89F25",
":.	c #FDC239",
"<.	c #FED77E",
"[.	c #FEE6AC",
"}.	c #FEE9B7",
"|.	c #FFE9B7",
"1.	c #FEEAB7",
"2.	c #FEE9B6",
"3.	c #FEE5A8",
"4.	c #FED676",
"5.	c #FDC235",
"6.	c #FCB928",
"7.	c #FBB127",
"8.	c #F8A026",
"9.	c #F2912F",
"0.	c #ED8B44",
"a.	c #F4942C",
"b.	c #FBB327",
"c.	c #FECA52",
"d.	c #FEE098",
"e.	c #FFE8AF",
"f.	c #FFE8B0",
"g.	c #FEE8B0",
"h.	c #FEE7AE",
"i.	c #FEE094",
"j.	c #FECB4F",
"k.	c #FDBC29",
"l.	c #F9A226",
"m.	c #F3932D",
"n.	c #EB8944",
"o.	c #ED8B43",
"p.	c #FDBE2A",
"q.	c #FED061",
"r.	c #FFE39F",
"s.	c #FFE6A9",
"t.	c #FFE6AA",
"u.	c #FEE6A9",
"v.	c #FEE6AA",
"w.	c #FEE39E",
"x.	c #FED163",
"y.	c #FDBF2B",
"z.	c #FCB627",
"A.	c #F3932C",
"B.	c #FDBF2A",
"C.	c #FED265",
"D.	c #FFE29C",
"E.	c #FFE4A3",
"F.	c #FEE4A3",
"G.	c #FED36A",
"H.	c #FDC12B",
"I.	c #FBAE26",
"J.	c #F3932E",
"K.	c #F3912D",
"L.	c #FEC029",
"M.	c #FFD05D",
"N.	c #FFE196",
"O.	c #FFE39C",
"P.	c #FEE29C",
"Q.	c #FEE198",
"R.	c #FED365",
"S.	c #FEC12A",
"T.	c #FCB727",
"U.	c #FDBF29",
"V.	c #FFCD4D",
"W.	c #FFDE8D",
"X.	c #FEE096",
"Y.	c #FEDF90",
"Z.	c #FECF56",
"`.	c #FDC029",
" +	c #EF8D36",
".+	c #FDBE29",
"++	c #FEC839",
"@+	c #FFDA7F",
"#+	c #FFDF8F",
"$+	c #FEDF8F",
"%+	c #FEDC84",
"&+	c #FECA40",
"*+	c #F69B27",
"=+	c #ED8B41",
"-+	c #FDBB28",
";+	c #FEC52B",
">+	c #FFD467",
",+	c #FFDC87",
"'+	c #FFDD88",
")+	c #FEDC88",
"!+	c #FED66E",
"~+	c #FEC62D",
"{+	c #FDBC28",
"]+	c #F18F37",
"^+	c #FEC329",
"/+	c #FFCC46",
"(+	c #FFDA7C",
"_+	c #FFDB80",
":+	c #FEDB80",
"<+	c #FEDA7D",
"[+	c #FECE4D",
"}+	c #F8A126",
"|+	c #EF8E39",
"1+	c #FFC72C",
"2+	c #FFD365",
"3+	c #FFD878",
"4+	c #FED878",
"5+	c #FED46A",
"6+	c #FEC72F",
"7+	c #FCB527",
"8+	c #F59929",
"9+	c #EC8C4C",
"0+	c #FEC529",
"a+	c #FFCB40",
"b+	c #FFD56E",
"c+	c #FFD670",
"d+	c #FFD570",
"e+	c #FED570",
"f+	c #FED56E",
"g+	c #FECB44",
"h+	c #FEC52A",
"i+	c #FFC72A",
"j+	c #FFCE54",
"k+	c #FFD368",
"l+	c #FED368",
"m+	c #FEC72B",
"n+	c #FEC229",
"o+	c #EC8B46",
"p+	c #FFC830",
"q+	c #FFD05B",
"r+	c #FFD160",
"s+	c #FED160",
"t+	c #FED05C",
"u+	c #FEC832",
"v+	c #FEC62A",
"w+	c #F08E39",
"x+	c #FFC937",
"y+	c #FFCE57",
"z+	c #FFCE58",
"A+	c #FFCF59",
"B+	c #FDD268",
"C+	c #FCD26A",
"D+	c #FECE58",
"E+	c #FBD168",
"F+	c #FDD36A",
"G+	c #FECF59",
"H+	c #FEC93C",
"I+	c #FEC72A",
"J+	c #FEC129",
"K+	c #F4952B",
"L+	c #FEC429",
"M+	c #FFC93B",
"N+	c #FFCC50",
"O+	c #FFCD54",
"P+	c #ECC86C",
"Q+	c #887349",
"R+	c #B99A4D",
"S+	c #FECC50",
"T+	c #B99848",
"U+	c #88744B",
"V+	c #ECC970",
"W+	c #FECE55",
"X+	c #FEC93F",
"Y+	c #FEC42A",
"Z+	c #F79D27",
"`+	c #ED8C47",
" @	c #FFC83B",
".@	c #FFCA49",
"+@	c #FFCA4A",
"@@	c #FDD163",
"#@	c #D0B56E",
"$@	c #684C2D",
"%@	c #4E2C13",
"&@	c #D5AA44",
"*@	c #FECA49",
"=@	c #D5A941",
"-@	c #674C2E",
";@	c #D0B671",
">@	c #FDD267",
",@	c #FECA4A",
"'@	c #FEC83D",
")@	c #FDBE28",
"!@	c #EF8D38",
"~@	c #EFD07A",
"{@	c #9F8A5A",
"]@	c #683C19",
"^@	c #663A17",
"/@	c #85652A",
"(@	c #FAC748",
"_@	c #FFCA46",
":@	c #FFC945",
"<@	c #FFC944",
"[@	c #FFC943",
"}@	c #FEC947",
"|@	c #FECA48",
"1@	c #FEC949",
"2@	c #FAC648",
"3@	c #85642A",
"4@	c #643917",
"5@	c #673C19",
"6@	c #9F8B5D",
"7@	c #EFD17E",
"8@	c #FECF5A",
"9@	c #FEC83C",
"0@	c #FFC837",
"a@	c #FFCA48",
"b@	c #F8D87D",
"c@	c #C0AD72",
"d@	c #6F4E2D",
"e@	c #704019",
"f@	c #72411A",
"g@	c #725022",
"h@	c #EBBC3B",
"i@	c #FFC72F",
"j@	c #FFC72D",
"k@	c #FFC72B",
"l@	c #FEC72E",
"m@	c #FEC730",
"n@	c #FEC733",
"o@	c #FEC835",
"p@	c #FEC838",
"q@	c #FEC942",
"r@	c #FEC945",
"s@	c #EBBD49",
"t@	c #725024",
"u@	c #714119",
"v@	c #6E4D2D",
"w@	c #C0AE73",
"x@	c #FEC837",
"y@	c #FFD15F",
"z@	c #F5D67C",
"A@	c #C5B376",
"B@	c #795E3B",
"C@	c #6D3E19",
"D@	c #765224",
"E@	c #E3BA42",
"F@	c #FEC72C",
"G@	c #E3B83F",
"H@	c #775223",
"I@	c #724119",
"J@	c #724219",
"K@	c #6D3E18",
"L@	c #785D3A",
"M@	c #F5D77E",
"N@	c #FED261",
"O@	c #FECA4B",
"P@	c #F79E26",
"Q@	c #ED8D47",
"R@	c #FFC82E",
"S@	c #FCCC49",
"T@	c #EAC45D",
"U@	c #D2B86E",
"V@	c #A69360",
"W@	c #6E3F19",
"X@	c #8D6E30",
"Y@	c #EBC044",
"Z@	c #EBBF40",
"`@	c #8E6D2E",
" #	c #6C3E18",
".#	c #A69361",
"+#	c #D2B970",
"@#	c #EAC45F",
"##	c #FBCC4B",
"$#	c #FEC82F",
"%#	c #FDBD28",
"&#	c #EF8F43",
"*#	c #F18F2E",
"=#	c #FECB3B",
"-#	c #937A3C",
";#	c #422511",
">#	c #532F14",
",#	c #653A17",
"'#	c #6F3F19",
")#	c #6F4019",
"!#	c #6B3E19",
"~#	c #89662A",
"{#	c #CBA53B",
"]#	c #FBC839",
"^#	c #FBC837",
"/#	c #CCA439",
"(#	c #896629",
"_#	c #663A18",
":#	c #542F14",
"<#	c #937B3F",
"[#	c #FECC40",
"}#	c #F9A426",
"|#	c #F08D31",
"1#	c #F39233",
"2#	c #F9C531",
"3#	c #E1B12F",
"4#	c #CA9F2A",
"5#	c #C09629",
"6#	c #C3982A",
"7#	c #D1A42D",
"8#	c #EAB933",
"9#	c #FDC831",
"0#	c #FDC730",
"a#	c #EAB932",
"b#	c #CA9F2B",
"c#	c #E0B130",
"d#	c #F9C532",
"e#	c #F9A526",
"f#	c #F19135",
"g#	c #F19132",
"h#	c #F2922F",
"i#	c #F9A726",
"j#	c #F19036",
"k#	c #FFC62A",
"l#	c #FEC92A",
"m#	c #FEC82A",
"n#	c #EF8C32",
"o#	c #F5C52A",
"p#	c #90781D",
"q#	c #D7BB2A",
"r#	c #FBCF2D",
"s#	c #FBC82A",
"t#	c #DCB227",
"u#	c #EEC22A",
"v#	c #AF9322",
"w#	c #BBA225",
"x#	c #F7CF2D",
"y#	c #FEC92B",
"z#	c #E6BA28",
"A#	c #E1B928",
"B#	c #F8A226",
"C#	c #EE8E43",
"D#	c #EABA28",
"E#	c #432911",
"F#	c #452B11",
"G#	c #92811F",
"H#	c #D4BB2B",
"I#	c #F5D22E",
"J#	c #FCCF2D",
"K#	c #FDCB2B",
"L#	c #FCCB2B",
"M#	c #F0C52B",
"N#	c #C6A425",
"O#	c #7C6419",
"P#	c #412611",
"Q#	c #A2811E",
"R#	c #7C6119",
"S#	c #402511",
"T#	c #74621A",
"U#	c #C3AD28",
"V#	c #EECE2E",
"W#	c #FBD12D",
"X#	c #FDCC2B",
"Y#	c #F7CA2C",
"Z#	c #D7B227",
"`#	c #997F1E",
" $	c #482F12",
".$	c #593F15",
"+$	c #FAC52A",
"@$	c #F79E27",
"#$	c #ED8C48",
"$$	c #A5821F",
"%$	c #5A3514",
"&$	c #6A4D18",
"*$	c #958020",
"=$	c #AF9B24",
"-$	c #B8A226",
";$	c #B59D25",
">$	c #A68F22",
",$	c #856B1C",
"'$	c #5E3B15",
")$	c #583514",
"!$	c #D6A825",
"~$	c #D4AB26",
"{$	c #5A3615",
"]$	c #5A3515",
"^$	c #5F3E16",
"/$	c #88721E",
"($	c #A89424",
"_$	c #B6A026",
":$	c #B8A025",
"<$	c #AD9623",
"[$	c #91791F",
"}$	c #674817",
"|$	c #A6801E",
"1$	c #F4C32A",
"2$	c #85631D",
"3$	c #6E411A",
"4$	c #6D411A",
"5$	c #6C4019",
"6$	c #A58120",
"7$	c #FDC72A",
"8$	c #FDC82A",
"9$	c #AF8F23",
"0$	c #7B561B",
"a$	c #F1BF29",
"b$	c #F2922D",
"c$	c #E9C12B",
"d$	c #87601F",
"e$	c #804B1F",
"f$	c #7D491E",
"g$	c #997320",
"h$	c #F6C32A",
"i$	c #F9CA2B",
"j$	c #A58723",
"k$	c #7E4A1E",
"l$	c #7F4A1E",
"m$	c #80551D",
"n$	c #E3B427",
"o$	c #EF8D39",
"p$	c #EAC82D",
"q$	c #9D7724",
"r$	c #8D5222",
"s$	c #905423",
"t$	c #8F5323",
"u$	c #875321",
"v$	c #BC9826",
"w$	c #F9C62A",
"x$	c #B69827",
"y$	c #8A5222",
"z$	c #905523",
"A$	c #895022",
"B$	c #A27C23",
"C$	c #EDBE2A",
"D$	c #FAAD26",
"E$	c #EC8B48",
"F$	c #F49629",
"G$	c #F8CC2C",
"H$	c #CAA728",
"I$	c #9A6E23",
"J$	c #8B5222",
"K$	c #8C5222",
"L$	c #8A5122",
"M$	c #8F5F22",
"N$	c #B49126",
"O$	c #E8BF2B",
"P$	c #FCCC2C",
"Q$	c #DDB92B",
"R$	c #A78125",
"S$	c #8C5622",
"T$	c #8C5122",
"U$	c #8A5622",
"V$	c #A57F24",
"W$	c #D7B129",
"X$	c #FCC92B",
"Y$	c #F3952C",
"Z$	c #FBCA2B",
"`$	c #EEC32B",
" %	c #E5BC2B",
".%	c #EAC12B",
"+%	c #F8CA2C",
"@%	c #FDCA2B",
"#%	c #F3C72B",
"$%	c #E7BD2B",
"%%	c #E7BE2B",
"&%	c #F4C82C",
"*%	c #EF8D3A",
"=%	c #EB8947",
"-%	c #F19034",
";%	c #F08F37",
">%	c #F5982A",
",%	c #EB8B4D",
"'%	c #F08F39",
")%	c #EF8D3B",
"!%	c #F3942C",
"~%	c #FEC629",
"{%	c #F69B28",
"]%	c #EC8A43",
"^%	c #FDD127",
"/%	c #ECCC21",
"(%	c #E8C721",
"_%	c #E8C821",
":%	c #F0CF22",
"<%	c #FECE28",
"[%	c #EE8C37",
"}%	c #FECE27",
"|%	c #AE9A17",
"1%	c #543114",
"2%	c #553115",
"3%	c #522F15",
"4%	c #502E15",
"5%	c #4F2E15",
"6%	c #502F15",
"7%	c #533015",
"8%	c #563115",
"9%	c #573613",
"0%	c #CEB71B",
"a%	c #FFC929",
"b%	c #F8A326",
"c%	c #F19031",
"d%	c #FBD425",
"e%	c #6A4B13",
"f%	c #653A18",
"g%	c #663B19",
"h%	c #643A19",
"i%	c #623918",
"j%	c #603818",
"k%	c #643A18",
"l%	c #693D19",
"m%	c #633817",
"n%	c #9A8515",
"o%	c #FFCF28",
"p%	c #B29C18",
"q%	c #603814",
"r%	c #653A16",
"s%	c #653916",
"t%	c #663A16",
"u%	c #643916",
"v%	c #603C13",
"w%	c #D1B91B",
"x%	c #F2922E",
"y%	c #EA8746",
"z%	c #EC8945",
"A%	c #FED127",
"B%	c #EFCE22",
"C%	c #EBCA21",
"D%	c #F2D122",
"E%	c #FFCD28",
"F%	c #FDBD29",
"G%	c #EE8C38",
"H%	c #EC8A42",
"I%	c #EF8E3A",
"J%	c #F59829",
"K%	c #EE8D3B",
"L%	c #F18F36",
"M%	c #F08E36",
"N%	c #EC8A46",
"O%	c #FAAE26",
"P%	c #F2932C",
"Q%	c #ED8D48",
"R%	c #F19136",
"S%	c #EF8D32",
"T%	c #EE8E44",
"                                                                                                                                ",
"                                                    . + @ # $ % % $ # & * =                                                     ",
"                                            - ; > , ' ) ! ~ { ] ] { ~ ! ^ ' , / ( _                                             ",
"                                      : < [ } | 1 2 3 4 5 6 7 7 7 7 8 5 9 0 a b | } c d e                                       ",
"                                  f g h i 1 j 9 7 k l m n o p q r s t u v w x 7 5 j y ^ h z A                                   ",
"                                d h | B 4 7 C v s D E F G H I J K L I M N O P Q R C S 4 2 T U V                                 ",
"                            W [ ) B 4 S X Y Z `  .J ........................J M +.@.#.X $.9 B ^ %.&.                            ",
"                          *.=.{ 3 S -.;.>.,.H '.'.).).).).).).).).).).).).).).).).!.~.{.].X S ^.b =./.                          ",
"                        (._.B 5 C :.<.[.}.}.}.}.}.|.|.|.|.|.|.|.|.|.}.1.1.1.1.1.1.1.1.2.3.4.5.6.7.2 8.9.                        ",
"                    0.a.i j b.X c.d.e.f.f.f.f.f.f.f.f.f.f.f.f.f.f.f.g.g.g.g.g.g.g.g.g.g.g.h.i.j.k.S j l.m.n.                    ",
"                  o.%.! 0 $.p.q.r.s.t.t.t.t.t.t.t.t.t.t.t.t.t.t.t.t.u.v.v.v.v.v.v.v.v.v.v.v.u.w.x.y.z.^.T A.n.                  ",
"                  a.! ^.k B.C.D.E.E.E.E.E.E.E.E.E.E.E.E.E.E.E.E.E.E.F.F.F.F.F.F.F.F.F.F.F.F.F.F.w.G.H.x I.T J.                  ",
"                K.^ 0 k L.M.N.D.O.O.O.D.D.D.D.D.D.D.O.O.D.D.D.D.O.O.P.P.P.P.P.P.P.P.P.P.P.P.P.P.P.Q.R.S.T.^.l.9.                ",
"              *._.j $.U.V.W.N.N.N.N.N.N.N.N.N.N.N.N.N.N.N.N.N.N.N.N.X.X.X.X.X.X.X.X.X.X.X.X.X.X.X.X.Y.Z.`.z.j 8. +              ",
"            W =.B b..+++@+#+#+#+#+#+#+#+#+#+#+#+#+#+#+#+#+#+#+#+#+#+$+$+$+$+$+$+$+$+$+$+$+$+$+$+$+$+$+%+&+U.S 2 *+=+            ",
"            [ { 5 -+;+>+,+'+'+'+'+'+'+'+'+'+'+'+'+'+'+'+'+'+'+'+'+'+)+)+)+)+)+)+)+)+)+)+)+)+)+)+)+)+)+)+!+~+{+7.b %.            ",
"          ]+) 3 C ^+/+(+_+_+_+_+_+_+_+_+_+_+_+_+_+_+_+_+_+_+_+_+_+_+:+:+:+:+:+:+:+:+:+:+:+:+:+:+:+:+:+:+<+[+^+6.^.}+|+          ",
"        f h B 7 U.1+2+3+3+3+3+3+3+3+3+3+3+3+3+3+3+3+3+3+3+3+3+3+3+3+4+4+4+4+4+4+4+4+4+4+4+4+4+4+4+4+4+4+4+5+6+`.7+2 8+9+        ",
"        g | 4 w 0+a+b+c+c+c+c+c+c+c+c+c+c+c+c+c+c+c+d+d+d+c+c+c+c+c+e+e+e+e+e+e+e+e+e+e+e+e+e+e+e+e+e+e+e+f+g+h+-+5 T (         ",
"      : h B S L.i+j+k+k+k+k+k+k+k+k+k+k+k+k+k+k+k+k+k+k+k+k+k+k+k+k+l+l+l+l+l+l+l+l+l+l+l+l+l+l+l+l+l+l+l+l+Z.m+n+z.2 U o+      ",
"      < i 4 w h+p+q+r+r+r+r+r+r+r+r+r+r+r+r+r+r+r+r+r+r+r+r+r+r+r+r+s+s+s+s+s+s+s+s+s+s+s+s+s+s+s+s+s+s+s+s+t+u+v+{+9 l.w+      ",
"      [ ] 7 `.i+x+y+z+z+z+z+z+z+z+z+z+A+B+C+z+z+z+z+z+z+z+z+z+z+z+z+D+D+D+D+D+D+D+D+E+F+G+D+D+D+D+D+D+D+D+D+D+H+I+J+S B K+      ",
"    - } j C L+i+M+N+N+N+N+N+N+N+N+N+O+P+Q+R+N+N+N+N+N+N+N+N+N+N+N+N+S+S+S+S+S+S+S+S+T+U+V+W+S+S+S+S+S+S+S+S+S+X+I+Y+l 3 Z+`+    ",
"    ; | 9 {+v+i+ @.@.@.@.@.@.@.@+@@@#@$@%@&@.@.@.@.@.@.@.@.@.@.@.@.@*@*@*@*@*@*@*@*@=@%@-@;@>@,@*@*@*@*@*@*@*@'@I+v+)@7.T !@    ",
"    > b 7 `.i+i+ @.@.@.@.@.@.@A+~@{@]@^@/@(@_@:@:@<@[@[@[@<@:@:@_@_@}@}@|@|@|@1@1@*@2@3@4@5@6@7@8@*@*@*@*@*@*@9@I+I+J+S y A.    ",
"    , 2 k ^+i+i+0@a@.@.@.@y+b@c@d@e@f@g@h@i@j@1+k@k@k@k@k@k@k@1+1+j@l@m@n@o@p@9@X+q@r@s@t@u@e@v@w@b@D+*@*@*@|@x@I+I+L+C j U     ",
"  . ' 3 6.h+i+i+i@:@+@y@z@A@B@C@f@f@D@E@I+I+i+i+i+i+I+I+I+I+I+i+i+i+I+I+I+I+I+I+I+I+F@l@G@H@I@J@K@L@A@M@N@O@r@l@I+I+v+-+^.P@Q@  ",
"  + ^ 4 {+v+i+R@S@T@U@V@d@K@f@f@W@X@Y@m+I+I+I+i+i+I+I+I+I+I+I+I+i+i+I+I+I+I+I+I+I+I+I+I+m+Z@`@W@J@I@ #d@.#+#@###$#I+v+%#5 }+&#  ",
"  *#! 5 )@v+i+=#-#;#>#,#'#)#!#~#{#]#i+i+i+i+i+i+i+i+i+i+i+i+i+i+i+i+I+I+I+I+I+I+I+I+I+I+I+I+^#/#(#!#)#)#_#:#;#<#[#I+v+U.8 }#|#  ",
"  1#~ 8 U.i+i+i+2#3#4#5#6#7#8#9#i+i+i+i+i+i+i+i+i+i+i+i+i+i+i+i+i+i+I+I+I+I+I+I+I+I+I+I+I+I+I+I+0#a#7#6#5#b#c#d#I+I+v+J+7 e#f#  ",
"  $ { 7 L.i+i+i+i+i+i+i+i+i+i+i+i+i+i+i+i+i+i+i+i+i+i+i+i+i+i+i+i+i+I+I+I+I+I+I+I+I+I+I+I+I+I+I+I+I+I+I+I+I+I+I+I+I+I+n+S b g#  ",
"  a.b 7 J+i+i+i+i+i+i+i+i+i+i+i+i+i+i+i+i+i+i+i+i+i+i+i+i+i+i+i+i+i+I+I+I+I+I+I+I+I+I+I+I+I+I+I+I+I+I+I+I+I+I+I+I+I+I+n+7+y h#  ",
"  % b 7 J+i+i+i+i+i+i+i+i+i+i+i+i+i+i+i+i+i+i+i+i+i+i+i+i+i+i+i+i+i+I+I+I+I+I+I+I+I+I+I+I+I+I+I+I+I+I+I+I+I+I+I+I+I+I+n+7+i#h#  ",
"  $ { 7 L.i+i+i+i+i+i+i+i+i+i+i+i+i+i+i+i+i+i+i+i+i+i+i+i+i+i+i+i+i+I+I+I+I+I+I+I+I+I+I+I+I+I+I+I+I+I+I+I+I+I+I+I+I+I+n+S b g#  ",
"  # ~ 6 U.i+i+i+i+v+v+v+v+v+v+v+v+I+I+I+I+I+I+I+I+I+I+I+I+I+I+I+I+I+I+I+I+I+I+I+I+I+I+I+I+I+I+I+I+I+I+I+I+I+I+I+I+I+I+J+7 e#j#  ",
"  & ! 5 .+k#i+i+i+v+v+v+l#I+v+v+v+I+I+I+I+I+I+I+I+I+I+I+I+I+I+I+I+I+i+i+l#m#i+i+i+i+i+i+i+i+i+i+i+i+i+i+i+i+i+i+i+i+i+U.8 }#n#  ",
"  + ^ 9 {+k#i+i+i+v+v+o#p#q#r#I+v+I+I+I+I+I+I+I+I+s#t#u#I+I+I+I+I+I+i+l#v#w#x#y#i+i+i+i+i+i+i+i+i+l#z#A#m#i+i+i+i+i+k#%#5 B#C#  ",
"  . ' 0 w h+i+i+i+v+v+D#E#F#G#H#I#J#K#l#m#y#L#M#N#O#P#Q#I+I+I+I+I+I+i+m#R#S#T#U#V#W#X#y#m#y#K#Y#Z#`# $.$+$i+i+i+i+i+v+-+I.@$#$  ",
"    , a x ^+i+i+i+v+v+v+$$%$%$%$&$*$=$-$;$>$,$'$%$%$)$!$I+I+I+I+I+I+i+i+~${$]$]$^$/$($_$:$<$[$}$]$]$]$|$I+i+i+i+i+i+L+C j 8+    ",
"    / b 7 L.i+i+i+v+v+v+1$2$3$3$3$3$3$4$4$3$3$3$3$5$6$7$I+I+I+I+I+I+i+i+8$9$5$3$3$3$3$4$4$3$3$3$3$3$0$a$i+i+i+i+i+i+n+7+B b$    ",
"    ( | 5 %#k#i+i+v+v+v+v+c$d$e$e$e$e$e$e$e$e$e$f$g$h$I+I+I+I+I+I+I+i+i+i+i$j$k$e$e$e$e$e$e$e$e$l$m$n$i+i+i+i+i+i+k#.+7.T o$    ",
"    _ } j C L+i+i+v+v+v+v+I+p$q$r$s$s$s$s$s$t$u$v$w$I+I+I+I+I+I+I+I+i+i+i+i+x#x$y$s$z$z$z$z$s$A$B$C$i+i+i+i+i+i+i+h+w D$Z+E$    ",
"      F$y S L.i+i+v+v+v+v+v+I+G$H$I$J$K$L$M$N$O$m#I+I+I+I+I+I+I+I+I+i+i+i+i+i+P$Q$R$S$K$T$U$V$W$X$i+i+i+i+i+i+i+i+J+7+B Y$      ",
"      d i 4 -+h+i+v+v+v+v+v+v+v+I+Z$`$ %.%+%l#I+I+I+I+I+I+I+I+I+I+I+i+i+i+i+i+i+i+@%#%$%%%&%@%i+i+i+i+i+i+i+i+i+v+{+5 B#*%      ",
"      e h 2 $.J+i+v+v+v+v+v+v+v+v+I+I+I+I+I+I+I+I+I+I+I+I+I+I+I+I+I+i+i+i+i+i+i+i+i+i+i+i+i+i+i+i+i+i+i+i+i+i+i+n+k a 8+=%      ",
"        -%! 9 -+h+v+v+v+v+v+v+v+v+I+I+I+I+I+I+I+I+I+I+I+I+I+I+I+I+I+i+i+i+i+i+i+i+i+i+i+i+i+i+i+i+i+i+i+i+i+i+v+{+5 T ;%        ",
"        A U B S `.v+v+v+v+v+v+v+v+I+I+I+I+I+I+I+I+I+I+I+I+I+I+I+I+I+i+i+i+i+i+i+i+i+i+i+i+i+i+i+i+i+i+i+i+i+i+J+7+a >%,%        ",
"          '%}+^.6.^+v+v+v+v+v+v+v+I+I+I+I+I+I+I+I+I+I+I+I+I+I+I+I+I+i+i+i+i+i+i+i+i+i+i+i+i+i+i+i+i+i+i+i+i+L+w 4 }+)%          ",
"            %.b 7.{+0+v+v+v+v+v+v+I+I+I+I+I+I+I+I+I+I+I+I+I+I+I+I+I+I+i+i+i+i+i+i+i+i+i+i+i+i+i+i+i+i+i+i+v+%#8 i#!%            ",
"            &.*+2 S U.~%v+v+v+v+v+I+I+I+I+I+I+I+I+I+I+I+I+I+I+I+I+I+I+i+i+i+i+i+i+i+i+i+i+i+i+i+i+i+i+i+v+U.7+a {%]%            ",
"              /.8.j z.`.v+v+v+v+v+I+I+I+I+I+I+I+I+^%/%(%(%(%(%(%(%(%(%(%_%:%<%i+i+i+i+i+i+i+i+i+i+i+i+k#J+x 3 8.[%              ",
"                9.l.^.x J+v+v+v+v+I+I+I+I+I+I+I+}%|%1%2%3%4%5%5%5%4%6%7%8%9%0%a%i+i+i+i+i+i+i+i+i+i+k#n+C 4 b%c%                ",
"                  m.T I.T.`.~%v+v+I+I+I+I+I+I+I+d%e%f%g%h%i%j%j%j%i%k%g%l%m%n%o%i+i+i+i+i+i+i+i+i+k#J+C 9 }#h#                  ",
"                  n.A.T ^.z.U.0+v+I+I+I+I+I+I+I+<%p%q%r%r%s%s%s%s%r%t%t%u%v%w%a%i+i+i+i+i+i+i+i+v+L.x 4 }#x%y%                  ",
"                    z%J.l.3 S {+^+v+I+I+I+I+I+I+I+A%B%C%C%C%C%C%C%C%C%C%C%D%E%i+i+i+i+i+i+i+i+L+F%7+3 b%h#y%                    ",
"                        9.8.2 7.6.L.h+I+I+I+I+I+I+I+I+I+I+I+I+I+I+I+i+i+i+i+i+i+i+i+i+i+i+v+J+w 8 a 8.c%                        ",
"                           +*+b ^.7+-+n+h+v+I+I+I+I+I+I+I+I+I+I+I+I+i+i+i+i+i+i+i+i+i+v+n+{+7+4 i#{%G%                          ",
"                            =+%.}+2 5 z.{+J+Y+v+I+I+I+I+I+I+I+I+I+I+i+i+i+i+i+i+k#h+J+{+k 5 2 }+!%H%                            ",
"                                I%8+T 2 9 S 6.)@J+L+h+v+v+v+I+I+I+I+i+i+k#v+L+n+.+w 7+5 a T J%K%                                ",
"                                  9+L%U l.B 3 7.S C -+%#U.J+n+n+n+n+J+U.%#-+C 7+7.D$B B#8+M%,%                                  ",
"                                      N%w+K+Z+T y j D$5 8 7 S 7+7+S 7 8 5 O%j B T Z+!%*%=%                                      ",
"                                            `+!@P%U @$}+}#e#b y y b e#}#B#@$8+b$o$E$                                            ",
"                                                    Q%&#|#R%g#h#h#g#j#S%T%#$                                                    ",
"                                                                                                                                "};
